<svg width="57" height="58" viewBox="0 0 57 58" fill="none" xmlns="http://www.w3.org/2000/svg">
<path d="M53.675 58C47.0778 58 40.5597 56.5371 34.1208 53.6113C27.6819 50.6856 21.8236 46.5364 16.5458 41.1639C11.2681 35.7914 7.1915 29.8303 4.31617 23.2806C1.44083 16.7309 0.00211111 10.0984 0 3.38333C0 2.41667 0.316667 1.61111 0.95 0.966667C1.58333 0.322222 2.375 0 3.325 0H16.15C16.8889 0 17.5486 0.255629 18.1292 0.766889C18.7097 1.27815 19.0528 1.88178 19.1583 2.57778L21.2167 13.8556C21.3222 14.7148 21.2958 15.4398 21.1375 16.0306C20.9792 16.6213 20.6889 17.1315 20.2667 17.5611L15.2 22.7167C16.2556 24.7037 17.5085 26.6231 18.9588 28.4748C20.4092 30.3265 22.0062 32.1127 23.75 33.8333C25.3861 35.4981 27.1014 37.0427 28.8958 38.4669C30.6903 39.8911 32.5903 41.1929 34.5958 42.3722L39.425 37.5389C39.9 37.0556 40.5207 36.6936 41.287 36.453C42.0533 36.2124 42.8049 36.1447 43.5417 36.25L54.4667 38.5056C55.2056 38.7204 55.8125 39.1103 56.2875 39.6752C56.7625 40.2402 57 40.8707 57 41.5667V54.6167C57 55.5833 56.6833 56.3889 56.05 57.0333C55.4167 57.6778 54.625 58 53.675 58Z" fill="#8DBE6D"/>
</svg>
