<svg width="58" height="58" viewBox="0 0 58 58" fill="none" xmlns="http://www.w3.org/2000/svg">
<path d="M3.37988 0.25H16.416C17.1045 0.25 17.718 0.481995 18.2646 0.955078C18.8151 1.43151 19.1293 1.98319 19.2266 2.61328L19.2285 2.62109L21.3203 13.8867C21.423 14.7185 21.3938 15.403 21.2451 15.9482C21.0955 16.4967 20.822 16.9681 20.4238 17.3662L15.2734 22.5166L15.1416 22.6475L15.2305 22.8115C16.3108 24.8101 17.5932 26.7398 19.0762 28.6006C20.3721 30.2267 21.782 31.8025 23.3066 33.3271L23.9678 33.9775C25.6371 35.6466 27.3876 37.1957 29.2188 38.624C31.0519 40.0539 32.9927 41.3612 35.041 42.5449L35.2061 42.6396L35.3418 42.5059L40.25 37.6777L40.252 37.6768C40.7008 37.2279 41.2936 36.8849 42.041 36.6543C42.6945 36.4527 43.333 36.3781 43.958 36.4297L44.2246 36.46L55.2969 38.7061C56.0027 38.9079 56.5764 39.2712 57.0254 39.7959C57.4723 40.3183 57.6895 40.892 57.6895 41.5234V54.5596C57.6895 55.4634 57.3907 56.2031 56.7969 56.7969C56.2031 57.3907 55.4634 57.6895 54.5596 57.6895C47.8912 57.6894 41.3003 56.2365 34.7852 53.3271C28.2696 50.4176 22.3396 46.2909 16.9951 40.9443C11.6507 35.5977 7.52479 29.6677 4.61523 23.1543C1.7059 16.6414 0.252157 10.0504 0.25 3.37988L0.263672 3.04883C0.32889 2.29349 0.622908 1.66225 1.14258 1.14258C1.66225 0.622908 2.29349 0.32889 3.04883 0.263672L3.37988 0.25Z" fill="#EF1212" stroke="#EF1212" stroke-width="0.5"/>
<path d="M46.9973 24.0301C46.8032 24.2139 46.538 24.319 46.2597 24.3225L36.2726 24.4459C35.9944 24.4492 35.7257 24.3506 35.5263 24.1714C35.3267 23.9919 35.2124 23.7461 35.2088 23.4892L35.0837 14.2696C35.0876 14.0189 35.196 13.7793 35.3872 13.6012C35.5808 13.421 35.8433 13.3183 36.1184 13.3148C36.3935 13.3115 36.6592 13.4078 36.8581 13.5835C37.0571 13.7593 37.1736 14.0004 37.1819 14.2543L37.1833 14.2543L37.3546 19.8862L37.3893 21.0172L48.6543 10.3451C48.8484 10.1613 49.1136 10.0561 49.3919 10.0526C49.6703 10.0492 49.9393 10.1483 50.1389 10.3278C50.3383 10.5073 50.4521 10.7525 50.4556 11.0094C50.4591 11.2662 50.352 11.5136 50.1581 11.6975L38.893 22.3696L40.1188 22.3723L46.2239 22.3853L46.2311 22.3852L46.3352 22.3885C46.5758 22.4076 46.8035 22.5034 46.9781 22.6604C47.1775 22.8399 47.2912 23.0851 47.2948 23.3419C47.2982 23.5988 47.1913 23.8463 46.9973 24.0301Z" fill="#EF1212" stroke="#EF1212"/>
</svg>
