<svg width="64" height="57" viewBox="0 0 64 57" fill="none" xmlns="http://www.w3.org/2000/svg">
<path d="M39.4737 21.1192L45.297 15.5771L39.4737 10.0351C39.1648 9.74108 38.9912 9.34237 38.9912 8.92663C38.9912 8.5109 39.1648 8.11219 39.4737 7.81822C39.7826 7.52424 40.2015 7.35909 40.6383 7.35909C41.0752 7.35909 41.4941 7.52424 41.803 7.81822L47.6263 13.3603L53.4497 7.81821C53.7585 7.52424 54.1775 7.35909 54.6143 7.35909C55.0512 7.35909 55.4701 7.52424 55.779 7.81821C56.0879 8.11219 56.2614 8.5109 56.2614 8.92663C56.2614 9.34237 56.0879 9.74108 55.779 10.0351L49.9557 15.5771L55.779 21.1192C56.0879 21.4132 56.2614 21.8119 56.2614 22.2277C56.2614 22.6434 56.0879 23.0421 55.779 23.3361C55.4701 23.6301 55.0512 23.7952 54.6143 23.7952C54.1775 23.7952 53.7585 23.6301 53.4497 23.3361L47.6263 17.794L41.803 23.3361C41.4941 23.6301 41.0752 23.7952 40.6383 23.7952C40.2015 23.7952 39.7826 23.6301 39.4737 23.3361C39.1648 23.0421 38.9912 22.6434 38.9912 22.2277C38.9912 21.8119 39.1648 21.4132 39.4737 21.1192Z" fill="#EF1212"/>
<path d="M3.43945 0.25H16.707C17.4111 0.250029 18.037 0.479604 18.5938 0.945312C19.1544 1.41434 19.4737 1.95579 19.5723 2.57227V2.57324L19.5732 2.58008L21.6992 13.6484H21.7002C21.8067 14.4722 21.7777 15.1489 21.626 15.6865C21.4743 16.224 21.197 16.6865 20.792 17.0781L15.5508 22.1455L15.4121 22.2793L15.5059 22.4473C16.6055 24.4137 17.9106 26.3119 19.4199 28.1426C20.739 29.7425 22.1739 31.293 23.7256 32.793L24.3984 33.4326C26.0973 35.0746 27.8788 36.5979 29.7422 38.0029C31.6078 39.4096 33.5826 40.6959 35.667 41.8604L35.8271 41.9502L35.9609 41.8232L40.957 37.0732L40.958 37.0713C41.4151 36.6294 42.0199 36.2918 42.7822 36.0645C43.4485 35.8657 44.0996 35.7929 44.7373 35.8438L45.0098 35.873L56.2803 38.083C57.0005 38.2823 57.5844 38.6413 58.041 39.1572C58.4955 39.6708 58.7157 40.2322 58.7158 40.8496V53.6748C58.7158 54.5603 58.4128 55.2861 57.8086 55.8701C57.2039 56.4546 56.4488 56.75 55.5254 56.75C48.737 56.7499 42.028 55.3197 35.3965 52.457C28.7646 49.5942 22.7291 45.5343 17.29 40.2744C11.851 35.0145 7.653 29.1811 4.69238 22.7744C1.73197 16.3681 0.252213 9.8856 0.25 3.3252L0.264648 3C0.33085 2.2602 0.627836 1.64077 1.15625 1.12988C1.76089 0.545398 2.51603 0.250043 3.43945 0.25Z" fill="#EF1212" stroke="#EF1212" stroke-width="0.5"/>
</svg>
